<svg xmlns="http://www.w3.org/2000/svg" width="356" height="356" viewBox="0 0 356 356">
<g>
<path
    d="M 74.12 275.88 C72.32,277.68 70.84,277.99 64.25,277.96 C55.43,277.91 51.80,276.45 49.51,272.02 C47.47,268.08 47.60,262.42 50.14,243.50 L 52.30 227.50 L 58.61 221.50 C67.37,213.19 68.00,211.25 68.01,192.78 C68.01,184.38 68.47,175.83 69.04,173.79 C70.07,170.09 70.06,170.07 63.17,163.29 C52.86,153.15 48.00,141.83 48.00,128.00 C48.00,116.46 51.33,107.21 61.54,90.38 C69.17,77.81 70.22,73.85 67.60,67.58 C66.58,65.14 65.20,63.89 62.54,63.01 C57.93,61.49 54.50,62.33 49.73,66.13 C42.62,71.78 35.72,70.36 32.47,62.58 C30.64,58.19 31.73,54.27 35.97,50.03 C41.64,44.36 48.21,41.59 57.00,41.18 C75.64,40.30 88.72,52.14 89.78,70.86 C90.34,80.79 87.99,87.87 79.44,102.03 C75.93,107.84 72.34,114.60 71.48,117.05 C68.11,126.58 70.23,138.49 76.19,143.50 C80.33,146.99 83.13,146.64 88.54,141.97 C99.23,132.72 113.43,125.45 147.82,111.63 C163.24,105.43 170.78,101.83 175.03,98.63 C178.27,96.20 184.09,92.97 187.96,91.45 C194.41,88.92 195.88,87.73 205.75,77.17 C214.96,67.29 217.50,65.17 223.50,62.38 C227.35,60.58 233.20,57.06 236.50,54.56 C246.07,47.32 252.00,46.42 252.00,52.23 C252.00,53.74 252.42,54.03 253.75,53.47 C254.71,53.06 257.19,52.24 259.24,51.66 C265.19,49.96 265.70,51.40 262.54,60.88 L 259.85 68.94 L 262.40 72.28 C266.16,77.20 268.00,82.33 268.00,87.84 C268.00,90.64 268.90,94.77 270.09,97.46 C271.36,100.34 271.93,103.12 271.56,104.61 C270.58,108.51 264.26,114.74 259.39,116.59 C255.45,118.10 254.07,118.15 247.96,117.06 C241.62,115.93 240.70,115.99 237.75,117.69 C234.86,119.36 234.05,120.93 230.40,131.90 L 226.30 144.23 L 229.40 145.48 C231.11,146.16 235.88,147.98 240.00,149.52 C249.39,153.02 254.82,158.13 257.85,166.29 C261.75,176.79 259.88,185.81 253.11,189.19 C250.25,190.62 249.22,190.69 246.61,189.65 C242.97,188.21 239.00,181.29 239.00,176.41 C239.00,174.67 238.35,172.70 237.55,172.04 C236.71,171.34 229.90,170.39 221.49,169.80 C207.73,168.82 206.81,168.87 205.48,170.63 C200.84,176.76 194.61,210.00 198.10,210.00 C200.67,210.00 205.02,214.34 206.12,218.00 C207.57,222.84 205.88,227.71 202.28,229.08 C198.26,230.61 188.81,230.15 185.03,228.25 C179.39,225.40 178.09,221.93 176.48,205.34 C175.69,197.18 175.03,188.59 175.02,186.25 C175.01,183.69 174.54,182.00 173.83,182.00 C172.08,182.00 147.67,192.96 146.39,194.32 C145.77,194.97 144.76,198.17 144.13,201.43 C142.34,210.78 136.11,222.41 127.59,232.36 C123.42,237.23 120.00,241.64 120.00,242.14 C120.00,243.84 124.85,252.67 127.53,255.86 C129.17,257.80 131.11,259.00 132.62,259.00 C141.77,259.00 148.20,268.98 143.44,275.78 C142.03,277.79 141.05,278.00 133.01,278.00 C128.13,278.00 123.07,277.60 121.78,277.11 C118.47,275.85 113.03,270.07 104.32,258.57 C94.24,245.27 93.34,243.27 94.63,236.98 C95.73,231.64 95.52,231.29 92.47,233.31 C91.39,234.03 87.05,236.10 82.83,237.91 C78.61,239.72 74.30,242.17 73.25,243.35 C72.20,244.53 70.57,248.36 69.63,251.86 L 67.93 258.23 L 71.56 261.36 C74.50,263.91 75.29,265.38 75.71,269.13 C76.14,272.95 75.86,274.14 74.12,275.88 ZM 55.56 269.78 C56.87,271.65 58.05,272.00 63.00,272.00 C66.23,272.00 69.17,271.53 69.53,270.96 C70.49,269.39 67.23,265.00 65.10,265.00 C61.70,265.00 61.05,262.93 62.43,256.49 C65.98,239.97 67.63,237.58 78.77,232.97 C102.86,222.99 115.33,209.34 120.81,187.00 C122.47,180.23 122.88,179.50 125.07,179.50 C128.24,179.50 128.60,182.09 126.55,190.12 C125.68,193.52 125.12,196.45 125.31,196.64 C125.50,196.83 134.39,192.89 145.08,187.88 C155.76,182.88 166.52,177.98 169.00,177.01 L 173.50 175.24 L 174.27 168.25 C175.71,155.34 178.93,148.53 182.10,151.70 C182.97,152.57 182.94,154.51 181.98,159.62 C179.77,171.33 182.36,215.85 185.53,220.69 C186.86,222.71 187.86,223.00 193.59,223.00 C200.08,223.00 200.13,222.98 199.82,220.35 C199.50,217.70 198.86,217.15 193.75,215.13 C191.15,214.10 191.00,213.69 191.00,207.64 C191.00,204.12 191.89,196.12 192.98,189.87 C195.54,175.10 199.37,167.26 209.47,156.09 C217.36,147.37 222.53,138.20 225.03,128.50 C227.67,118.22 232.59,111.91 239.06,110.49 C240.77,110.11 244.99,110.34 248.45,110.99 C254.22,112.08 255.07,112.00 258.91,110.05 C264.66,107.11 265.83,104.21 263.68,98.20 C262.75,95.62 261.99,91.39 262.00,88.82 C262.00,82.79 260.65,79.30 256.69,75.17 C251.70,69.96 250.00,69.35 247.97,72.04 C246.81,73.58 245.69,74.10 244.49,73.63 C242.99,73.06 242.81,72.11 243.32,67.23 C243.64,64.08 244.21,60.49 244.57,59.25 C246.27,53.50 235.96,60.80 231.40,68.58 C228.55,73.44 226.95,74.03 224.87,70.99 C223.51,68.99 223.48,68.99 220.35,70.91 C218.62,71.97 213.51,77.17 208.99,82.45 C201.23,91.52 200.25,92.30 191.14,96.63 C185.84,99.15 179.70,102.67 177.50,104.45 C172.32,108.65 171.84,108.88 156.50,114.82 C122.47,128.00 105.65,136.26 93.71,145.67 C89.25,149.19 84.57,152.32 83.32,152.63 C80.18,153.42 72.70,149.61 69.74,145.70 C64.35,138.59 62.91,132.72 64.11,122.76 C64.98,115.49 66.92,111.01 75.23,97.00 C84.33,81.66 86.21,70.16 81.20,60.43 C75.08,48.52 59.92,43.56 47.42,49.38 C39.14,53.24 35.23,60.45 40.02,63.01 C42.25,64.20 42.80,63.98 48.22,59.67 C58.45,51.54 73.51,57.86 74.75,70.80 C75.42,77.74 73.77,82.40 66.34,94.57 C56.77,110.22 54.65,116.26 54.57,128.00 C54.52,135.03 54.99,138.80 56.40,142.50 C59.51,150.69 64.81,157.80 71.14,162.26 C74.36,164.53 77.00,167.09 76.99,167.95 C76.98,168.80 76.30,171.74 75.47,174.47 C74.36,178.12 74.01,183.47 74.16,194.47 C74.40,212.94 73.21,216.52 64.02,225.00 L 58.06 230.50 L 56.03 246.14 C53.59,264.94 53.55,266.91 55.56,269.78 ZM 282.33 289.83 C257.49,304.77 237.02,317.00 236.83,317.00 C236.65,316.99 234.93,316.03 233.00,314.85 C231.07,313.68 212.68,302.89 192.13,290.88 C171.57,278.87 154.14,268.53 153.38,267.90 C151.11,266.01 151.80,264.05 155.50,261.87 C157.43,260.73 159.00,259.38 159.00,258.87 C159.00,258.35 157.43,257.00 155.50,255.87 C153.43,254.65 152.00,253.02 152.00,251.89 C152.00,250.68 153.30,249.35 155.50,248.30 C157.43,247.38 158.99,246.15 158.99,245.56 C158.98,244.98 157.41,243.48 155.49,242.24 C153.57,241.00 152.00,239.34 152.00,238.56 C152.00,237.24 170.97,225.00 173.01,225.00 C173.83,225.00 176.00,228.14 176.00,229.32 C176.00,229.57 172.85,231.64 169.00,233.93 C165.15,236.22 162.01,238.41 162.01,238.79 C162.02,239.18 169.11,243.54 177.76,248.49 C186.42,253.43 200.70,261.78 209.50,267.05 C218.30,272.31 228.07,278.08 231.22,279.87 L 236.94 283.11 L 271.72 262.25 C290.85,250.78 310.21,239.24 314.75,236.60 C319.29,233.97 323.19,231.50 323.43,231.12 C323.66,230.74 319.82,227.98 314.89,224.99 C302.10,217.23 301.88,214.84 313.05,205.53 C318.70,200.82 319.84,199.42 318.80,198.46 C317.58,197.33 292.31,182.21 279.88,175.18 C274.25,172.00 269.66,171.12 268.50,173.00 C267.40,174.78 266.25,174.07 265.67,171.25 C264.98,167.93 267.86,165.00 271.80,165.00 C273.26,165.00 281.93,169.43 291.86,175.25 C301.48,180.89 313.65,188.01 318.91,191.07 C329.91,197.48 328.88,195.28 331.48,218.00 L 333.03 231.50 L 330.85 233.29 C329.66,234.27 327.96,235.49 327.09,235.99 C325.75,236.76 326.09,237.39 329.20,239.99 C333.49,243.56 333.33,245.03 328.26,248.47 L 324.78 250.84 L 328.89 253.43 C331.15,254.86 333.00,256.66 333.00,257.44 L 333.00 257.50 C333.00,257.60 333.00,257.69 332.99,257.78 C332.87,259.45 330.37,260.94 282.33,289.83 ZM 277.07 248.25 C272.95,250.86 269.34,252.98 269.04,252.95 C268.14,252.86 215.60,221.32 214.20,220.02 C213.48,219.36 213.05,218.34 213.25,217.75 C213.44,217.17 218.40,213.81 224.27,210.30 L 234.93 203.91 L 251.21 201.08 C260.17,199.52 267.86,198.57 268.30,198.98 C268.75,199.38 269.54,202.81 270.07,206.60 C270.59,210.40 271.22,214.03 271.45,214.67 C271.76,215.52 274.58,215.69 281.44,215.28 L 291.00 214.71 L 291.00 238.86 L 287.78 241.18 C286.00,242.46 281.18,245.64 277.07,248.25 ZM 122.73 270.93 C125.13,272.36 138.22,271.85 138.73,270.31 C139.47,268.08 135.18,265.00 131.35,265.00 C126.69,265.00 121.92,260.23 117.13,250.77 C112.51,241.65 113.06,239.23 122.03,229.26 C125.84,225.02 130.34,218.96 132.03,215.80 C135.49,209.30 139.27,198.94 138.48,198.14 C138.19,197.85 133.98,199.56 129.13,201.94 C122.04,205.41 119.94,206.96 118.41,209.86 C117.36,211.84 113.43,216.71 109.67,220.68 C103.37,227.34 102.74,228.42 101.42,234.70 C100.64,238.44 100.00,241.80 100.00,242.17 C100.00,243.38 120.92,269.86 122.73,270.93 ZM 199.29 288.20 C219.76,300.14 236.62,309.93 236.77,309.95 C237.04,310.00 287.43,279.83 298.50,273.00 C301.80,270.96 308.94,266.67 314.38,263.47 C323.31,258.21 324.08,257.53 322.43,256.33 C321.44,255.60 319.90,255.00 319.03,255.00 C317.51,255.00 297.10,267.02 256.87,291.61 C246.63,297.88 237.66,303.00 236.94,303.00 C236.22,303.00 227.51,298.20 217.57,292.33 C207.63,286.46 193.65,278.20 186.50,273.98 C167.62,262.83 167.14,262.61 164.36,263.88 C163.06,264.47 162.02,265.30 162.04,265.73 C162.06,266.15 178.82,276.27 199.29,288.20 ZM 209.00 280.41 C233.27,294.84 236.73,296.62 238.50,295.55 C239.60,294.88 259.06,283.20 281.75,269.60 C304.44,256.00 323.00,244.44 323.00,243.91 C323.00,243.39 321.91,242.46 320.58,241.85 C318.60,240.95 317.64,241.11 315.33,242.72 C313.77,243.80 295.50,254.91 274.71,267.41 L 236.92 290.14 L 226.21 283.91 C220.32,280.48 207.40,272.86 197.50,266.99 C167.88,249.40 166.23,248.57 163.43,249.85 C162.09,250.46 161.00,251.30 161.01,251.73 C161.01,252.15 165.63,255.10 171.26,258.28 C176.89,261.46 193.88,271.42 209.00,280.41 ZM 247.26 182.75 C248.85,184.76 251.56,184.19 252.97,181.55 C255.42,176.98 252.75,166.78 247.63,161.15 C244.83,158.08 241.35,156.33 231.13,152.87 L 222.68 150.02 L 221.11 152.26 C220.25,153.49 218.00,156.20 216.13,158.28 C214.25,160.35 212.96,162.29 213.25,162.58 C213.54,162.87 219.24,163.53 225.91,164.03 C232.59,164.54 238.93,165.43 240.01,166.01 C242.60,167.39 244.78,171.74 245.61,177.15 C245.97,179.54 246.72,182.06 247.26,182.75 ZM 261.00 256.98 C261.00,258.02 260.61,259.12 260.14,259.41 C259.36,259.90 243.79,251.26 218.50,236.32 C213.01,233.07 208.36,229.64 208.18,228.70 C207.36,224.42 211.75,226.23 233.75,239.27 C246.26,246.68 257.51,253.27 258.75,253.91 C259.99,254.55 261.00,255.93 261.00,256.98 ZM 223.72 200.45 C215.87,205.15 208.96,209.00 208.38,209.00 C207.79,209.00 206.58,208.19 205.69,207.21 C204.15,205.51 204.79,204.97 217.28,197.35 C217.91,196.97 218.51,196.60 219.09,196.24 C232.04,188.34 234.55,186.81 235.75,187.51 C236.09,187.71 236.33,188.10 236.67,188.56 C237.40,189.56 238.00,190.72 238.00,191.14 C238.00,191.56 231.57,195.75 223.72,200.45 ZM 318.16 220.02 C321.54,222.21 324.74,224.00 325.27,224.00 C325.79,224.00 325.97,222.54 325.66,220.75 C325.36,218.96 324.81,214.91 324.44,211.75 C324.07,208.59 323.34,206.00 322.81,206.00 C321.53,206.00 312.00,214.09 312.00,215.18 C312.00,215.65 314.77,217.83 318.16,220.02 ZM 290.80 205.80 C289.11,207.49 283.86,207.29 281.22,205.44 C276.61,202.22 279.45,198.00 286.23,198.00 C290.10,198.00 292.00,199.49 292.00,202.50 C292.00,203.65 291.46,205.14 290.80,205.80 ZM 255.96 93.55 C255.30,94.35 254.19,95.00 253.50,95.00 C251.46,95.00 249.79,92.25 250.48,90.05 C250.90,88.74 251.99,88.00 253.50,88.00 C256.29,88.00 257.78,91.36 255.96,93.55 ZM 251.67 64.33 C253.04,65.70 254.72,64.92 255.88,62.37 C257.38,59.07 256.93,58.62 253.63,60.12 C251.08,61.28 250.30,62.96 251.67,64.33 Z"
    fill="rgb(59,62,63)"
/>
</g>
</svg>